<svg width="121" height="121" viewBox="0 0 121 121" fill="none" xmlns="http://www.w3.org/2000/svg">
<path d="M56.2463 79.8503C55.9838 80.1313 55.7386 80.428 55.5122 80.7388C55.2798 81.0696 55.0925 81.4299 54.9552 81.8101C54.7769 82.1475 54.6498 82.5095 54.5782 82.8843C54.5425 83.2833 54.5361 83.6843 54.5593 84.0842C54.5266 84.8708 54.6786 85.6542 55.0032 86.3715C55.2609 87.1202 55.6801 87.8031 56.2312 88.3718C56.7822 88.9405 57.4515 89.381 58.1917 89.6622C58.9048 89.9909 59.6787 90.1671 60.4639 90.1795C61.249 90.1919 62.028 90.0402 62.7512 89.7341C63.4999 89.4764 64.1828 89.0572 64.7515 88.5062C65.3201 87.9552 65.7607 87.2858 66.0419 86.5456C66.3198 85.8204 66.4542 85.0481 66.4378 84.2716C66.4548 83.4821 66.3158 82.697 66.0288 81.9614C65.7418 81.2258 65.3124 80.554 64.7652 79.9847C64.2164 79.4136 63.5599 78.9568 62.8336 78.6407C62.1074 78.3246 61.3257 78.1554 60.5337 78.1429C59.7418 78.1304 58.9551 78.2748 58.2193 78.5679C57.4834 78.8609 56.8128 79.2968 56.2463 79.8503ZM61.7636 0.187406C49.8982 0.000217927 38.2437 3.33573 28.274 9.77216C18.3043 16.2086 10.4671 25.4568 5.75343 36.3474C1.0398 47.2379 -0.33855 59.2817 1.79268 70.9556C3.92392 82.6296 9.46901 93.4093 17.7268 101.932C25.9845 110.454 36.584 116.337 48.1849 118.835C59.7858 121.333 71.867 120.336 82.9009 115.968C93.9347 111.6 103.426 104.059 110.173 94.2969C116.921 84.5352 120.622 72.9918 120.81 61.1264C120.934 53.248 119.505 45.4224 116.605 38.0962C113.705 30.77 109.39 24.0867 103.907 18.428C98.4245 12.7693 91.8807 8.24598 84.6497 5.11625C77.4186 1.98652 69.6419 0.311694 61.7636 0.187406V0.187406ZM60.06 108.174C50.5676 108.024 41.3329 105.063 33.5235 99.6648C25.7141 94.2667 19.6809 86.674 16.1867 77.8469C12.6925 69.0199 11.8943 59.3549 13.893 50.0742C15.8917 40.7934 20.5976 32.3138 27.4156 25.7076C34.2336 19.1015 42.8574 14.6654 52.1965 12.9604C61.5357 11.2554 71.1707 12.3581 79.8831 16.129C88.5956 19.8999 95.9942 26.1697 101.143 34.1454C106.292 42.1212 108.961 51.4448 108.811 60.9371C108.61 73.6659 103.361 85.7936 94.2186 94.6522C85.076 103.511 72.7888 108.375 60.06 108.174V108.174ZM61.2903 30.1837C58.1291 30.1318 55.01 30.9134 52.2469 32.45C49.4838 33.9865 47.1741 36.2237 45.5503 38.9365C45.1055 39.6124 44.802 40.3714 44.658 41.1677C44.5141 41.964 44.5328 42.7812 44.7129 43.5702C44.893 44.3591 45.2308 45.1034 45.706 45.7584C46.1812 46.4134 46.784 46.9654 47.4782 47.3814C48.1723 47.7974 48.9434 48.0686 49.745 48.1789C50.5467 48.2891 51.3624 48.236 52.143 48.0228C52.9237 47.8097 53.6531 47.4408 54.2875 46.9384C54.9218 46.436 55.448 45.8105 55.8344 45.0995C56.3774 44.1923 57.1505 43.4447 58.0753 42.9324C59.0002 42.4201 60.044 42.1613 61.101 42.1822C62.6921 42.2073 64.2081 42.8634 65.3154 44.0062C66.4228 45.1491 67.0308 46.685 67.0057 48.2761C66.9806 49.8672 66.3244 51.3831 65.1816 52.4905C64.0388 53.5978 62.5029 54.2058 60.9118 54.1807C59.3207 54.1556 57.7848 54.7636 56.6419 55.8709C55.4991 56.9782 54.843 58.4942 54.8179 60.0853L54.7232 66.0845C54.6981 67.6756 55.3061 69.2115 56.4134 70.3544C57.5208 71.4972 59.0367 72.1533 60.6278 72.1784C62.2189 72.2035 63.7548 71.5955 64.8977 70.4882C66.0405 69.3809 66.6966 67.8649 66.7217 66.2738L66.7388 65.194C70.7292 63.8168 74.1087 61.0811 76.2865 57.4648C78.4643 53.8486 79.3018 49.5819 78.6527 45.4108C78.0036 41.2396 75.9091 37.4293 72.7353 34.6458C69.5616 31.8624 65.5105 30.283 61.2903 30.1837V30.1837Z" fill="#CAC0B3"/>
</svg>
